<?xml version="1.0" ?><svg height="48px" version="1.1" viewBox="0 0 48 48" width="48px" xmlns="http://www.w3.org/2000/svg" xmlns:xlink="http://www.w3.org/1999/xlink"><title/><desc/><g fill="none" fill-rule="evenodd" id="Page-1" stroke="none" stroke-width="1"><g id="Artboard-Copy" transform="translate(-407.000000, -189.000000)"><path d="M431.817146,229.844154 C431.751239,229.937604 431.669792,230.019056 431.576347,230.08497 C431.125034,230.403315 430.501103,230.295524 430.182757,229.84421 L430.182769,229.844202 C427.688704,226.308407 425.924432,223.724755 424.889954,222.093248 C420.296651,214.849006 418,209.48459 418,206 C418,198.820298 423.820298,193 431,193 C438.179702,193 444,198.820298 444,206 C444,209.478486 441.711388,214.830218 437.134163,222.055196 C436.096156,223.69365 434.323817,226.28997 431.817146,229.844154 Z M431,213 C435.418278,213 439,209.418278 439,205 C439,200.581722 435.418278,197 431,197 C426.581722,197 423,200.581722 423,205 C423,209.418278 426.581722,213 431,213 Z" fill="#000000" id="location2"/><g id="slices" transform="translate(47.000000, 9.000000)"/></g></g></svg>